<svg width="709" height="254" viewBox="0 0 709 254" fill="none" xmlns="http://www.w3.org/2000/svg">
<path d="M0 30C0 13.4315 13.4315 0 30 0H679C695.569 0 709 13.4315 709 30V254H0V30Z" fill="#111D3D"/>
<mask id="path-2-inside-1_417_173" fill="white">
<path d="M21 33C21 24.7157 27.7157 18 36 18H670C678.284 18 685 24.7157 685 33V254H21V33Z"/>
</mask>
<path d="M17 33C17 22.5066 25.5066 14 36 14H670C680.493 14 689 22.5066 689 33H681C681 26.9249 676.075 22 670 22H36C29.9249 22 25 26.9249 25 33H17ZM685 254H21H685ZM17 254V33C17 22.5066 25.5066 14 36 14V22C29.9249 22 25 26.9249 25 33V254H17ZM670 14C680.493 14 689 22.5066 689 33V254H681V33C681 26.9249 676.075 22 670 22V14Z" fill="#C2C4D2" mask="url(#path-2-inside-1_417_173)"/>
<circle cx="49.5" cy="42.5" r="6.5" fill="#C2C4D2"/>
<circle cx="72.5" cy="42.5" r="6.5" fill="#C2C4D2"/>
<circle cx="95.5" cy="42.5" r="6.5" fill="#C2C4D2"/>
</svg>
