<svg width="349" height="254" viewBox="0 0 349 254" fill="none" xmlns="http://www.w3.org/2000/svg">
<path d="M0 30C0 13.4315 13.4315 0 30 0H319C335.569 0 349 13.4315 349 30V254H0V30Z" fill="#111D3D"/>
<mask id="path-2-inside-1_417_172" fill="white">
<path d="M18 33C18 24.7157 24.7157 18 33 18H312C320.284 18 327 24.7157 327 33V254H18V33Z"/>
</mask>
<path d="M14 33C14 22.5066 22.5066 14 33 14H312C322.493 14 331 22.5066 331 33H323C323 26.9249 318.075 22 312 22H33C26.9249 22 22 26.9249 22 33H14ZM327 254H18H327ZM14 254V33C14 22.5066 22.5066 14 33 14V22C26.9249 22 22 26.9249 22 33V254H14ZM312 14C322.493 14 331 22.5066 331 33V254H323V33C323 26.9249 318.075 22 312 22V14Z" fill="#C2C4D2" mask="url(#path-2-inside-1_417_172)"/>
<path d="M111 18H238V21C238 29.2843 231.284 36 223 36H126C117.716 36 111 29.2843 111 21V18Z" fill="#C2C4D2"/>
</svg>
